<?xml version="1.0" standalone="no"?>
<!DOCTYPE svg PUBLIC "-//W3C//DTD SVG 1.1//EN" "http://www.w3.org/Graphics/SVG/1.1/DTD/svg11.dtd">
<svg version="1.1" width="1200" height="534" onload="init(evt)" viewBox="0 0 1200 534" xmlns="http://www.w3.org/2000/svg" xmlns:xlink="http://www.w3.org/1999/xlink">
<!-- Flame graph stack visualization. See https://github.com/brendangregg/FlameGraph for latest version, and http://www.brendangregg.com/flamegraphs.html for examples. -->
<!-- NOTES:  -->
<defs>
	<linearGradient id="background" y1="0" y2="1" x1="0" x2="0" >
		<stop stop-color="#eeeeee" offset="5%" />
		<stop stop-color="#eeeeb0" offset="95%" />
	</linearGradient>
</defs>
<style type="text/css">
	text { font-family:Verdana; font-size:12px; fill:rgb(0,0,0); }
	#search, #ignorecase { opacity:0.1; cursor:pointer; }
	#search:hover, #search.show, #ignorecase:hover, #ignorecase.show { opacity:1; }
	#subtitle { text-anchor:middle; font-color:rgb(160,160,160); }
	#title { text-anchor:middle; font-size:17px}
	#unzoom { cursor:pointer; }
	#frames > *:hover { stroke:black; stroke-width:0.5; cursor:pointer; }
	.hide { display:none; }
	.parent { opacity:0.5; }
</style>
<script type="text/ecmascript">
<![CDATA[
	"use strict";
	var details, searchbtn, unzoombtn, matchedtxt, svg, searching, currentSearchTerm, ignorecase, ignorecaseBtn;
	function init(evt) {
		details = document.getElementById("details").firstChild;
		searchbtn = document.getElementById("search");
		ignorecaseBtn = document.getElementById("ignorecase");
		unzoombtn = document.getElementById("unzoom");
		matchedtxt = document.getElementById("matched");
		svg = document.getElementsByTagName("svg")[0];
		searching = 0;
		currentSearchTerm = null;
	}

	window.addEventListener("click", function(e) {
		var target = find_group(e.target);
		if (target) {
			if (target.nodeName == "a") {
				if (e.ctrlKey === false) return;
				e.preventDefault();
			}
			if (target.classList.contains("parent")) unzoom();
			zoom(target);
		}
		else if (e.target.id == "unzoom") unzoom();
		else if (e.target.id == "search") search_prompt();
		else if (e.target.id == "ignorecase") toggle_ignorecase();
	}, false)

	// mouse-over for info
	// show
	window.addEventListener("mouseover", function(e) {
		var target = find_group(e.target);
		if (target) details.nodeValue = "Function: " + g_to_text(target);
	}, false)

	// clear
	window.addEventListener("mouseout", function(e) {
		var target = find_group(e.target);
		if (target) details.nodeValue = ' ';
	}, false)

	// ctrl-F for search
	window.addEventListener("keydown",function (e) {
		if (e.keyCode === 114 || (e.ctrlKey && e.keyCode === 70)) {
			e.preventDefault();
			search_prompt();
		}
	}, false)

	// ctrl-I to toggle case-sensitive search
	window.addEventListener("keydown",function (e) {
		if (e.ctrlKey && e.keyCode === 73) {
			e.preventDefault();
			toggle_ignorecase();
		}
	}, false)

	// functions
	function find_child(node, selector) {
		var children = node.querySelectorAll(selector);
		if (children.length) return children[0];
		return;
	}
	function find_group(node) {
		var parent = node.parentElement;
		if (!parent) return;
		if (parent.id == "frames") return node;
		return find_group(parent);
	}
	function orig_save(e, attr, val) {
		if (e.attributes["_orig_" + attr] != undefined) return;
		if (e.attributes[attr] == undefined) return;
		if (val == undefined) val = e.attributes[attr].value;
		e.setAttribute("_orig_" + attr, val);
	}
	function orig_load(e, attr) {
		if (e.attributes["_orig_"+attr] == undefined) return;
		e.attributes[attr].value = e.attributes["_orig_" + attr].value;
		e.removeAttribute("_orig_"+attr);
	}
	function g_to_text(e) {
		var text = find_child(e, "title").firstChild.nodeValue;
		return (text)
	}
	function g_to_func(e) {
		var func = g_to_text(e);
		// if there's any manipulation we want to do to the function
		// name before it's searched, do it here before returning.
		return (func);
	}
	function update_text(e) {
		var r = find_child(e, "rect");
		var t = find_child(e, "text");
		var w = parseFloat(r.attributes.width.value) -3;
		var txt = find_child(e, "title").textContent.replace(/\([^(]*\)$/,"");
		t.attributes.x.value = parseFloat(r.attributes.x.value) + 3;

		// Smaller than this size won't fit anything
		if (w < 2 * 12 * 0.59) {
			t.textContent = "";
			return;
		}

		t.textContent = txt;
		// Fit in full text width
		if (/^ *$/.test(txt) || t.getSubStringLength(0, txt.length) < w)
			return;

		for (var x = txt.length - 2; x > 0; x--) {
			if (t.getSubStringLength(0, x + 2) <= w) {
				t.textContent = txt.substring(0, x) + "..";
				return;
			}
		}
		t.textContent = "";
	}

	// zoom
	function zoom_reset(e) {
		if (e.attributes != undefined) {
			orig_load(e, "x");
			orig_load(e, "width");
		}
		if (e.childNodes == undefined) return;
		for (var i = 0, c = e.childNodes; i < c.length; i++) {
			zoom_reset(c[i]);
		}
	}
	function zoom_child(e, x, ratio) {
		if (e.attributes != undefined) {
			if (e.attributes.x != undefined) {
				orig_save(e, "x");
				e.attributes.x.value = (parseFloat(e.attributes.x.value) - x - 10) * ratio + 10;
				if (e.tagName == "text")
					e.attributes.x.value = find_child(e.parentNode, "rect[x]").attributes.x.value + 3;
			}
			if (e.attributes.width != undefined) {
				orig_save(e, "width");
				e.attributes.width.value = parseFloat(e.attributes.width.value) * ratio;
			}
		}

		if (e.childNodes == undefined) return;
		for (var i = 0, c = e.childNodes; i < c.length; i++) {
			zoom_child(c[i], x - 10, ratio);
		}
	}
	function zoom_parent(e) {
		if (e.attributes) {
			if (e.attributes.x != undefined) {
				orig_save(e, "x");
				e.attributes.x.value = 10;
			}
			if (e.attributes.width != undefined) {
				orig_save(e, "width");
				e.attributes.width.value = parseInt(svg.width.baseVal.value) - (10 * 2);
			}
		}
		if (e.childNodes == undefined) return;
		for (var i = 0, c = e.childNodes; i < c.length; i++) {
			zoom_parent(c[i]);
		}
	}
	function zoom(node) {
		var attr = find_child(node, "rect").attributes;
		var width = parseFloat(attr.width.value);
		var xmin = parseFloat(attr.x.value);
		var xmax = parseFloat(xmin + width);
		var ymin = parseFloat(attr.y.value);
		var ratio = (svg.width.baseVal.value - 2 * 10) / width;

		// XXX: Workaround for JavaScript float issues (fix me)
		var fudge = 0.0001;

		unzoombtn.classList.remove("hide");

		var el = document.getElementById("frames").children;
		for (var i = 0; i < el.length; i++) {
			var e = el[i];
			var a = find_child(e, "rect").attributes;
			var ex = parseFloat(a.x.value);
			var ew = parseFloat(a.width.value);
			var upstack;
			// Is it an ancestor
			if (0 == 0) {
				upstack = parseFloat(a.y.value) > ymin;
			} else {
				upstack = parseFloat(a.y.value) < ymin;
			}
			if (upstack) {
				// Direct ancestor
				if (ex <= xmin && (ex+ew+fudge) >= xmax) {
					e.classList.add("parent");
					zoom_parent(e);
					update_text(e);
				}
				// not in current path
				else
					e.classList.add("hide");
			}
			// Children maybe
			else {
				// no common path
				if (ex < xmin || ex + fudge >= xmax) {
					e.classList.add("hide");
				}
				else {
					zoom_child(e, xmin, ratio);
					update_text(e);
				}
			}
		}
		search();
	}
	function unzoom() {
		unzoombtn.classList.add("hide");
		var el = document.getElementById("frames").children;
		for(var i = 0; i < el.length; i++) {
			el[i].classList.remove("parent");
			el[i].classList.remove("hide");
			zoom_reset(el[i]);
			update_text(el[i]);
		}
		search();
	}

	// search
	function toggle_ignorecase() {
		ignorecase = !ignorecase;
		if (ignorecase) {
			ignorecaseBtn.classList.add("show");
		} else {
			ignorecaseBtn.classList.remove("show");
		}
		reset_search();
		search();
	}
	function reset_search() {
		var el = document.querySelectorAll("#frames rect");
		for (var i = 0; i < el.length; i++) {
			orig_load(el[i], "fill")
		}
	}
	function search_prompt() {
		if (!searching) {
			var term = prompt("Enter a search term (regexp " +
			    "allowed, eg: ^ext4_)"
			    + (ignorecase ? ", ignoring case" : "")
			    + "\nPress Ctrl-i to toggle case sensitivity", "");
			if (term != null) {
				currentSearchTerm = term;
				search();
			}
		} else {
			reset_search();
			searching = 0;
			currentSearchTerm = null;
			searchbtn.classList.remove("show");
			searchbtn.firstChild.nodeValue = "Search"
			matchedtxt.classList.add("hide");
			matchedtxt.firstChild.nodeValue = ""
		}
	}
	function search(term) {
		if (currentSearchTerm === null) return;
		var term = currentSearchTerm;

		var re = new RegExp(term, ignorecase ? 'i' : '');
		var el = document.getElementById("frames").children;
		var matches = new Object();
		var maxwidth = 0;
		for (var i = 0; i < el.length; i++) {
			var e = el[i];
			var func = g_to_func(e);
			var rect = find_child(e, "rect");
			if (func == null || rect == null)
				continue;

			// Save max width. Only works as we have a root frame
			var w = parseFloat(rect.attributes.width.value);
			if (w > maxwidth)
				maxwidth = w;

			if (func.match(re)) {
				// highlight
				var x = parseFloat(rect.attributes.x.value);
				orig_save(rect, "fill");
				rect.attributes.fill.value = "rgb(230,0,230)";

				// remember matches
				if (matches[x] == undefined) {
					matches[x] = w;
				} else {
					if (w > matches[x]) {
						// overwrite with parent
						matches[x] = w;
					}
				}
				searching = 1;
			}
		}
		if (!searching)
			return;

		searchbtn.classList.add("show");
		searchbtn.firstChild.nodeValue = "Reset Search";

		// calculate percent matched, excluding vertical overlap
		var count = 0;
		var lastx = -1;
		var lastw = 0;
		var keys = Array();
		for (k in matches) {
			if (matches.hasOwnProperty(k))
				keys.push(k);
		}
		// sort the matched frames by their x location
		// ascending, then width descending
		keys.sort(function(a, b){
			return a - b;
		});
		// Step through frames saving only the biggest bottom-up frames
		// thanks to the sort order. This relies on the tree property
		// where children are always smaller than their parents.
		var fudge = 0.0001;	// JavaScript floating point
		for (var k in keys) {
			var x = parseFloat(keys[k]);
			var w = matches[keys[k]];
			if (x >= lastx + lastw - fudge) {
				count += w;
				lastx = x;
				lastw = w;
			}
		}
		// display matched percent
		matchedtxt.classList.remove("hide");
		var pct = 100 * count / maxwidth;
		if (pct != 100) pct = pct.toFixed(1)
		matchedtxt.firstChild.nodeValue = "Matched: " + pct + "%";
	}
]]>
</script>
<rect x="0.0" y="0" width="1200.0" height="534.0" fill="url(#background)"  />
<text id="title" x="600.00" y="24" >Flame Graph</text>
<text id="details" x="10.00" y="517" > </text>
<text id="unzoom" x="10.00" y="24" class="hide">Reset Zoom</text>
<text id="search" x="1090.00" y="24" >Search</text>
<text id="ignorecase" x="1174.00" y="24" >ic</text>
<text id="matched" x="1090.00" y="517" > </text>
<g id="frames">
<g >
<title>core::str::from_utf8 (13 samples, 0.23%)</title><rect x="27.8" y="245" width="2.8" height="15.0" fill="rgb(240,190,24)" rx="2" ry="2" />
<text  x="30.84" y="255.5" ></text>
</g>
<g >
<title>&lt;std::io::stdio::StdoutRaw as std::io::Write&gt;::write (5 samples, 0.09%)</title><rect x="1174.9" y="101" width="1.1" height="15.0" fill="rgb(236,140,36)" rx="2" ry="2" />
<text  x="1177.92" y="111.5" ></text>
</g>
<g >
<title>__GI___libc_write (4 samples, 0.07%)</title><rect x="1174.9" y="53" width="0.9" height="15.0" fill="rgb(219,38,40)" rx="2" ry="2" />
<text  x="1177.92" y="63.5" ></text>
</g>
<g >
<title>__GI___libc_free (51 samples, 0.92%)</title><rect x="939.0" y="261" width="10.8" height="15.0" fill="rgb(217,56,42)" rx="2" ry="2" />
<text  x="942.01" y="271.5" ></text>
</g>
<g >
<title>alloc::raw_vec::RawVec&lt;T,A&gt;::reserve (4 samples, 0.07%)</title><rect x="1085.1" y="245" width="0.9" height="15.0" fill="rgb(248,198,40)" rx="2" ry="2" />
<text  x="1088.10" y="255.5" ></text>
</g>
<g >
<title>&lt;isize as std::sys::unix::IsMinusOne&gt;::is_minus_one (1 samples, 0.02%)</title><rect x="1175.8" y="37" width="0.2" height="15.0" fill="rgb(246,148,31)" rx="2" ry="2" />
<text  x="1178.77" y="47.5" ></text>
</g>
<g >
<title>__GI___libc_malloc (90 samples, 1.62%)</title><rect x="1035.8" y="245" width="19.1" height="15.0" fill="rgb(207,70,35)" rx="2" ry="2" />
<text  x="1038.84" y="255.5" ></text>
</g>
<g >
<title>&lt;alloc::vec::Vec&lt;T&gt; as alloc::vec::SpecExtend&lt;T,I&gt;&gt;::from_iter (1 samples, 0.02%)</title><rect x="1189.6" y="261" width="0.2" height="15.0" fill="rgb(253,153,34)" rx="2" ry="2" />
<text  x="1192.58" y="271.5" ></text>
</g>
<g >
<title>std::io::buffered::BufWriter&lt;W&gt;::flush_buf (22 samples, 0.40%)</title><rect x="1172.0" y="197" width="4.6" height="15.0" fill="rgb(236,181,11)" rx="2" ry="2" />
<text  x="1174.95" y="207.5" ></text>
</g>
<g >
<title>std::memchr::memrchr (2 samples, 0.04%)</title><rect x="1176.2" y="149" width="0.4" height="15.0" fill="rgb(253,196,48)" rx="2" ry="2" />
<text  x="1179.20" y="159.5" ></text>
</g>
<g >
<title>_int_free (7 samples, 0.13%)</title><rect x="38.0" y="277" width="1.5" height="15.0" fill="rgb(211,53,42)" rx="2" ry="2" />
<text  x="41.03" y="287.5" ></text>
</g>
<g >
<title>all (5,557 samples, 100%)</title><rect x="10.0" y="485" width="1180.0" height="15.0" fill="rgb(248,91,4)" rx="2" ry="2" />
<text  x="13.00" y="495.5" ></text>
</g>
<g >
<title>regex::re_builder::unicode::RegexBuilder::build (1 samples, 0.02%)</title><rect x="10.2" y="373" width="0.2" height="15.0" fill="rgb(245,10,37)" rx="2" ry="2" />
<text  x="13.21" y="383.5" ></text>
</g>
<g >
<title>structopt::StructOpt::from_args (1 samples, 0.02%)</title><rect x="1189.6" y="277" width="0.2" height="15.0" fill="rgb(220,138,46)" rx="2" ry="2" />
<text  x="1192.58" y="287.5" ></text>
</g>
<g >
<title>&lt;alloc::vec::Vec&lt;T&gt; as alloc::vec::SpecExtend&lt;T,I&gt;&gt;::from_iter (2 samples, 0.04%)</title><rect x="10.6" y="421" width="0.5" height="15.0" fill="rgb(254,16,38)" rx="2" ry="2" />
<text  x="13.64" y="431.5" ></text>
</g>
<g >
<title>std::sys::unix::fs::File::read (10 samples, 0.18%)</title><rect x="20.8" y="229" width="2.2" height="15.0" fill="rgb(244,159,27)" rx="2" ry="2" />
<text  x="23.83" y="239.5" ></text>
</g>
<g >
<title>alloc::sync::Arc&lt;T&gt;::drop_slow (1 samples, 0.02%)</title><rect x="1189.6" y="229" width="0.2" height="15.0" fill="rgb(236,63,9)" rx="2" ry="2" />
<text  x="1192.58" y="239.5" ></text>
</g>
<g >
<title>malloc_consolidate (81 samples, 1.46%)</title><rect x="983.4" y="245" width="17.2" height="15.0" fill="rgb(232,52,23)" rx="2" ry="2" />
<text  x="986.39" y="255.5" ></text>
</g>
<g >
<title>clap::app::validator::Validator::validate (1 samples, 0.02%)</title><rect x="10.0" y="421" width="0.2" height="15.0" fill="rgb(235,44,14)" rx="2" ry="2" />
<text  x="13.00" y="431.5" ></text>
</g>
<g >
<title>regex::compile::Compiler::compile (1 samples, 0.02%)</title><rect x="10.6" y="341" width="0.2" height="15.0" fill="rgb(253,225,7)" rx="2" ry="2" />
<text  x="13.64" y="351.5" ></text>
</g>
<g >
<title>&lt;regex::re_unicode::Regex as core::str::FromStr&gt;::from_str (2 samples, 0.04%)</title><rect x="10.6" y="389" width="0.5" height="15.0" fill="rgb(225,27,32)" rx="2" ry="2" />
<text  x="13.64" y="399.5" ></text>
</g>
<g >
<title>&lt;regex::re_unicode::Regex as core::str::FromStr&gt;::from_str (1 samples, 0.02%)</title><rect x="10.0" y="357" width="0.2" height="15.0" fill="rgb(226,198,51)" rx="2" ry="2" />
<text  x="13.00" y="367.5" ></text>
</g>
<g >
<title>alloc::raw_vec::RawVec&lt;T,A&gt;::reserve (15 samples, 0.27%)</title><rect x="1166.0" y="197" width="3.2" height="15.0" fill="rgb(206,179,22)" rx="2" ry="2" />
<text  x="1169.01" y="207.5" ></text>
</g>
<g >
<title>&lt;usize as core::slice::SliceIndex&lt;[T]&gt;&gt;::get (2 samples, 0.04%)</title><rect x="1184.9" y="213" width="0.4" height="15.0" fill="rgb(210,81,52)" rx="2" ry="2" />
<text  x="1187.90" y="223.5" ></text>
</g>
<g >
<title>&lt;std::io::Lines&lt;B&gt; as core::iter::traits::iterator::Iterator&gt;::next (100 samples, 1.80%)</title><rect x="15.9" y="277" width="21.3" height="15.0" fill="rgb(222,149,3)" rx="2" ry="2" />
<text  x="18.95" y="287.5" ></text>
</g>
<g >
<title>std::sys::unix::memchr::memchr (31 samples, 0.56%)</title><rect x="30.6" y="245" width="6.6" height="15.0" fill="rgb(216,147,17)" rx="2" ry="2" />
<text  x="33.60" y="255.5" ></text>
</g>
<g >
<title>_int_free (78 samples, 1.40%)</title><rect x="885.1" y="213" width="16.5" height="15.0" fill="rgb(251,106,8)" rx="2" ry="2" />
<text  x="888.07" y="223.5" ></text>
</g>
<g >
<title>regex_syntax::ast::parse::ParserI&lt;P&gt;::parse_group (1 samples, 0.02%)</title><rect x="10.4" y="341" width="0.2" height="15.0" fill="rgb(214,144,15)" rx="2" ry="2" />
<text  x="13.42" y="351.5" ></text>
</g>
<g >
<title>std::io::Write::write_all (187 samples, 3.37%)</title><rect x="1136.9" y="213" width="39.7" height="15.0" fill="rgb(229,100,12)" rx="2" ry="2" />
<text  x="1139.91" y="223.5" >std..</text>
</g>
<g >
<title>_dl_sysdep_start (1 samples, 0.02%)</title><rect x="1189.8" y="421" width="0.2" height="15.0" fill="rgb(228,149,40)" rx="2" ry="2" />
<text  x="1192.79" y="431.5" ></text>
</g>
<g >
<title>regex::compile::Compiler::c_repeat_zero_or_more (1 samples, 0.02%)</title><rect x="10.6" y="309" width="0.2" height="15.0" fill="rgb(218,227,49)" rx="2" ry="2" />
<text  x="13.64" y="319.5" ></text>
</g>
<g >
<title>std::rt::lang_start_internal (5,550 samples, 99.87%)</title><rect x="11.3" y="405" width="1178.5" height="15.0" fill="rgb(215,73,45)" rx="2" ry="2" />
<text  x="14.27" y="415.5" >std::rt::lang_start_internal</text>
</g>
<g >
<title>clap::app::validator::Validator::validate_matched_args (1 samples, 0.02%)</title><rect x="10.2" y="437" width="0.2" height="15.0" fill="rgb(226,132,0)" rx="2" ry="2" />
<text  x="13.21" y="447.5" ></text>
</g>
<g >
<title>__memrchr_avx2 (2 samples, 0.04%)</title><rect x="1176.2" y="101" width="0.4" height="15.0" fill="rgb(211,143,13)" rx="2" ry="2" />
<text  x="1179.20" y="111.5" ></text>
</g>
<g >
<title>__memmove_avx_unaligned_erms (35 samples, 0.63%)</title><rect x="1158.6" y="197" width="7.4" height="15.0" fill="rgb(227,106,51)" rx="2" ry="2" />
<text  x="1161.57" y="207.5" ></text>
</g>
<g >
<title>&lt;alloc::string::String as core::fmt::Display&gt;::fmt (7 samples, 0.13%)</title><rect x="1126.3" y="229" width="1.5" height="15.0" fill="rgb(209,70,6)" rx="2" ry="2" />
<text  x="1129.30" y="239.5" ></text>
</g>
<g >
<title>__rust_dealloc (8 samples, 0.14%)</title><rect x="951.7" y="261" width="1.7" height="15.0" fill="rgb(210,180,51)" rx="2" ry="2" />
<text  x="954.75" y="271.5" ></text>
</g>
<g >
<title>core::ptr::const_ptr::&lt;impl *const T&gt;::align_offset (1 samples, 0.02%)</title><rect x="30.4" y="213" width="0.2" height="15.0" fill="rgb(228,211,29)" rx="2" ry="2" />
<text  x="33.39" y="223.5" ></text>
</g>
<g >
<title>std::sys::unix::fd::FileDesc::write (13 samples, 0.23%)</title><rect x="1172.2" y="85" width="2.7" height="15.0" fill="rgb(254,229,49)" rx="2" ry="2" />
<text  x="1175.16" y="95.5" ></text>
</g>
<g >
<title>regex::compile::Compiler::new (1 samples, 0.02%)</title><rect x="10.0" y="309" width="0.2" height="15.0" fill="rgb(206,179,0)" rx="2" ry="2" />
<text  x="13.00" y="319.5" ></text>
</g>
<g >
<title>choose::main (5,550 samples, 99.87%)</title><rect x="11.3" y="293" width="1178.5" height="15.0" fill="rgb(224,121,39)" rx="2" ry="2" />
<text  x="14.27" y="303.5" >choose::main</text>
</g>
<g >
<title>std::sys::unix::cvt (1 samples, 0.02%)</title><rect x="1175.8" y="53" width="0.2" height="15.0" fill="rgb(234,20,2)" rx="2" ry="2" />
<text  x="1178.77" y="63.5" ></text>
</g>
<g >
<title>_int_free (1 samples, 0.02%)</title><rect x="1189.6" y="197" width="0.2" height="15.0" fill="rgb(212,137,1)" rx="2" ry="2" />
<text  x="1192.58" y="207.5" ></text>
</g>
<g >
<title>regex_syntax::parser::Parser::parse (1 samples, 0.02%)</title><rect x="10.4" y="405" width="0.2" height="15.0" fill="rgb(206,185,14)" rx="2" ry="2" />
<text  x="13.42" y="415.5" ></text>
</g>
<g >
<title>__rust_alloc (9 samples, 0.16%)</title><rect x="1083.2" y="245" width="1.9" height="15.0" fill="rgb(215,229,7)" rx="2" ry="2" />
<text  x="1086.19" y="255.5" ></text>
</g>
<g >
<title>__memmove_avx_unaligned_erms (77 samples, 1.39%)</title><rect x="868.7" y="213" width="16.4" height="15.0" fill="rgb(249,180,48)" rx="2" ry="2" />
<text  x="871.72" y="223.5" ></text>
</g>
<g >
<title>unlink_chunk.isra.0 (1 samples, 0.02%)</title><rect x="930.3" y="213" width="0.2" height="15.0" fill="rgb(208,225,16)" rx="2" ry="2" />
<text  x="933.30" y="223.5" ></text>
</g>
<g >
<title>&lt;std::fs::File as std::io::Read&gt;::read (12 samples, 0.22%)</title><rect x="20.4" y="245" width="2.6" height="15.0" fill="rgb(224,68,14)" rx="2" ry="2" />
<text  x="23.40" y="255.5" ></text>
</g>
<g >
<title>&lt;std::io::stdio::Maybe&lt;W&gt; as std::io::Write&gt;::write (13 samples, 0.23%)</title><rect x="1172.2" y="133" width="2.7" height="15.0" fill="rgb(206,227,3)" rx="2" ry="2" />
<text  x="1175.16" y="143.5" ></text>
</g>
<g >
<title>core::slice::&lt;impl [T]&gt;::copy_from_slice (1 samples, 0.02%)</title><rect x="1189.4" y="213" width="0.2" height="15.0" fill="rgb(217,153,22)" rx="2" ry="2" />
<text  x="1192.36" y="223.5" ></text>
</g>
<g >
<title>regex::compile::Compiler::fill (1 samples, 0.02%)</title><rect x="10.6" y="293" width="0.2" height="15.0" fill="rgb(237,19,31)" rx="2" ry="2" />
<text  x="13.64" y="303.5" ></text>
</g>
<g >
<title>std::sys::unix::args::imp::ARGV_INIT_ARRAY::init_wrapper (1 samples, 0.02%)</title><rect x="11.1" y="405" width="0.2" height="15.0" fill="rgb(246,65,15)" rx="2" ry="2" />
<text  x="14.06" y="415.5" ></text>
</g>
<g >
<title>regex::compile::Compiler::c (1 samples, 0.02%)</title><rect x="10.6" y="325" width="0.2" height="15.0" fill="rgb(245,192,41)" rx="2" ry="2" />
<text  x="13.64" y="335.5" ></text>
</g>
<g >
<title>regex_syntax::ast::parse::Parser::parse (1 samples, 0.02%)</title><rect x="10.4" y="389" width="0.2" height="15.0" fill="rgb(251,128,30)" rx="2" ry="2" />
<text  x="13.42" y="399.5" ></text>
</g>
<g >
<title>&lt;std::sys::unix::stdio::Stdout as std::io::Write&gt;::write (13 samples, 0.23%)</title><rect x="1172.2" y="101" width="2.7" height="15.0" fill="rgb(227,183,19)" rx="2" ry="2" />
<text  x="1175.16" y="111.5" ></text>
</g>
<g >
<title>std::io::Write::write_all (4 samples, 0.07%)</title><rect x="1188.7" y="229" width="0.9" height="15.0" fill="rgb(211,100,33)" rx="2" ry="2" />
<text  x="1191.73" y="239.5" ></text>
</g>
<g >
<title>&lt;core::iter::adapters::zip::Zip&lt;A,B&gt; as core::iter::adapters::zip::ZipImpl&lt;A,B&gt;&gt;::next (6 samples, 0.11%)</title><rect x="1127.8" y="213" width="1.3" height="15.0" fill="rgb(205,213,44)" rx="2" ry="2" />
<text  x="1130.78" y="223.5" ></text>
</g>
<g >
<title>std::io::impls::&lt;impl std::io::Write for alloc::vec::Vec&lt;u8&gt;&gt;::write (1 samples, 0.02%)</title><rect x="1176.0" y="133" width="0.2" height="15.0" fill="rgb(235,61,22)" rx="2" ry="2" />
<text  x="1178.99" y="143.5" ></text>
</g>
<g >
<title>regex::compile::Compiler::c_repeat_zero_or_more (1 samples, 0.02%)</title><rect x="10.2" y="309" width="0.2" height="15.0" fill="rgb(227,148,23)" rx="2" ry="2" />
<text  x="13.21" y="319.5" ></text>
</g>
<g >
<title>&lt;std::io::stdio::Maybe&lt;W&gt; as std::io::Write&gt;::write (5 samples, 0.09%)</title><rect x="1174.9" y="117" width="1.1" height="15.0" fill="rgb(229,89,42)" rx="2" ry="2" />
<text  x="1177.92" y="127.5" ></text>
</g>
<g >
<title>core::slice::&lt;impl [T]&gt;::copy_from_slice (1 samples, 0.02%)</title><rect x="1176.0" y="85" width="0.2" height="15.0" fill="rgb(230,162,47)" rx="2" ry="2" />
<text  x="1178.99" y="95.5" ></text>
</g>
<g >
<title>&lt;core::iter::adapters::zip::Zip&lt;A,B&gt; as core::iter::traits::iterator::Iterator&gt;::next (6 samples, 0.11%)</title><rect x="1127.8" y="229" width="1.3" height="15.0" fill="rgb(225,215,45)" rx="2" ry="2" />
<text  x="1130.78" y="239.5" ></text>
</g>
<g >
<title>structopt::StructOpt::from_args (2 samples, 0.04%)</title><rect x="10.6" y="437" width="0.5" height="15.0" fill="rgb(226,24,22)" rx="2" ry="2" />
<text  x="13.64" y="447.5" ></text>
</g>
<g >
<title>regex::re_builder::unicode::RegexBuilder::build (1 samples, 0.02%)</title><rect x="10.0" y="341" width="0.2" height="15.0" fill="rgb(248,71,13)" rx="2" ry="2" />
<text  x="13.00" y="351.5" ></text>
</g>
<g >
<title>__rdl_dealloc (9 samples, 0.16%)</title><rect x="949.8" y="261" width="1.9" height="15.0" fill="rgb(209,22,48)" rx="2" ry="2" />
<text  x="952.84" y="271.5" ></text>
</g>
<g >
<title>regex_syntax::ast::parse::ParserI&lt;P&gt;::bump_if (1 samples, 0.02%)</title><rect x="10.4" y="325" width="0.2" height="15.0" fill="rgb(220,164,39)" rx="2" ry="2" />
<text  x="13.42" y="335.5" ></text>
</g>
<g >
<title>_dl_receive_error (1 samples, 0.02%)</title><rect x="1189.8" y="389" width="0.2" height="15.0" fill="rgb(249,201,45)" rx="2" ry="2" />
<text  x="1192.79" y="399.5" ></text>
</g>
<g >
<title>_start (5,552 samples, 99.91%)</title><rect x="11.1" y="453" width="1178.9" height="15.0" fill="rgb(238,120,23)" rx="2" ry="2" />
<text  x="14.06" y="463.5" >_start</text>
</g>
<g >
<title>&lt;alloc::vec::Vec&lt;T&gt; as alloc::vec::SpecExtend&lt;T,I&gt;&gt;::from_iter (4,072 samples, 73.28%)</title><rect x="74.3" y="261" width="864.7" height="15.0" fill="rgb(235,29,48)" rx="2" ry="2" />
<text  x="77.34" y="271.5" >&lt;alloc::vec::Vec&lt;T&gt; as alloc::vec::SpecExtend&lt;T,I&gt;&gt;::from_iter</text>
</g>
<g >
<title>__rust_realloc (5 samples, 0.09%)</title><rect x="937.9" y="245" width="1.1" height="15.0" fill="rgb(243,193,1)" rx="2" ry="2" />
<text  x="940.95" y="255.5" ></text>
</g>
<g >
<title>__rdl_dealloc (1 samples, 0.02%)</title><rect x="37.8" y="277" width="0.2" height="15.0" fill="rgb(222,110,4)" rx="2" ry="2" />
<text  x="40.82" y="287.5" ></text>
</g>
<g >
<title>core::slice::&lt;impl [T]&gt;::copy_from_slice (13 samples, 0.23%)</title><rect x="1169.2" y="197" width="2.8" height="15.0" fill="rgb(228,106,48)" rx="2" ry="2" />
<text  x="1172.19" y="207.5" ></text>
</g>
<g >
<title>__memcmp_avx2_movbe (1 samples, 0.02%)</title><rect x="10.4" y="309" width="0.2" height="15.0" fill="rgb(209,108,17)" rx="2" ry="2" />
<text  x="13.42" y="319.5" ></text>
</g>
<g >
<title>&lt;std::io::Write::write_fmt::Adaptor&lt;T&gt; as core::fmt::Write&gt;::write_str (7 samples, 0.13%)</title><rect x="1188.1" y="245" width="1.5" height="15.0" fill="rgb(241,2,45)" rx="2" ry="2" />
<text  x="1191.09" y="255.5" ></text>
</g>
<g >
<title>regex_syntax::ast::visitor::visit (1 samples, 0.02%)</title><rect x="10.8" y="325" width="0.3" height="15.0" fill="rgb(229,147,1)" rx="2" ry="2" />
<text  x="13.85" y="335.5" ></text>
</g>
<g >
<title>std::io::Write::write_fmt (20 samples, 0.36%)</title><rect x="1185.3" y="277" width="4.3" height="15.0" fill="rgb(245,227,26)" rx="2" ry="2" />
<text  x="1188.33" y="287.5" ></text>
</g>
<g >
<title>std::sys::unix::alloc::&lt;impl core::alloc::GlobalAlloc for std::alloc::System&gt;::alloc (1 samples, 0.02%)</title><rect x="27.6" y="213" width="0.2" height="15.0" fill="rgb(212,168,0)" rx="2" ry="2" />
<text  x="30.62" y="223.5" ></text>
</g>
<g >
<title>regex::compile::CompileClass::c_utf8_seq (1 samples, 0.02%)</title><rect x="10.2" y="277" width="0.2" height="15.0" fill="rgb(232,39,7)" rx="2" ry="2" />
<text  x="13.21" y="287.5" ></text>
</g>
<g >
<title>alloc::str::&lt;impl alloc::slice::Join&lt;&amp;str&gt; for [S]&gt;::join (402 samples, 7.23%)</title><rect x="1000.6" y="261" width="85.4" height="15.0" fill="rgb(217,41,42)" rx="2" ry="2" />
<text  x="1003.59" y="271.5" >alloc::str..</text>
</g>
<g >
<title>regex_syntax::ast::parse::ParserI&lt;P&gt;::parse_with_comments (1 samples, 0.02%)</title><rect x="10.4" y="373" width="0.2" height="15.0" fill="rgb(221,94,31)" rx="2" ry="2" />
<text  x="13.42" y="383.5" ></text>
</g>
<g >
<title>std::sys::unix::alloc::&lt;impl core::alloc::GlobalAlloc for std::alloc::System&gt;::alloc (5 samples, 0.09%)</title><rect x="931.8" y="229" width="1.1" height="15.0" fill="rgb(233,151,2)" rx="2" ry="2" />
<text  x="934.79" y="239.5" ></text>
</g>
<g >
<title>choose::choice::Opt::augment_clap::_$u7b$$u7b$closure$u7d$$u7d$::hc43b0f9e58e47fcf (1 samples, 0.02%)</title><rect x="10.0" y="389" width="0.2" height="15.0" fill="rgb(235,16,38)" rx="2" ry="2" />
<text  x="13.00" y="399.5" ></text>
</g>
<g >
<title>[unknown] (5 samples, 0.09%)</title><rect x="10.0" y="453" width="1.1" height="15.0" fill="rgb(223,81,2)" rx="2" ry="2" />
<text  x="13.00" y="463.5" ></text>
</g>
<g >
<title>std::io::Write::write_fmt (413 samples, 7.43%)</title><rect x="1097.6" y="261" width="87.7" height="15.0" fill="rgb(237,107,45)" rx="2" ry="2" />
<text  x="1100.63" y="271.5" >std::io::W..</text>
</g>
<g >
<title>core::slice::&lt;impl [T]&gt;::get (2 samples, 0.04%)</title><rect x="1184.9" y="229" width="0.4" height="15.0" fill="rgb(253,103,46)" rx="2" ry="2" />
<text  x="1187.90" y="239.5" ></text>
</g>
<g >
<title>unlink_chunk.isra.0 (2 samples, 0.04%)</title><rect x="929.9" y="197" width="0.4" height="15.0" fill="rgb(240,177,35)" rx="2" ry="2" />
<text  x="932.88" y="207.5" ></text>
</g>
<g >
<title>regex::compile::Compiler::c (1 samples, 0.02%)</title><rect x="10.2" y="325" width="0.2" height="15.0" fill="rgb(206,25,13)" rx="2" ry="2" />
<text  x="13.21" y="335.5" ></text>
</g>
<g >
<title>regex::exec::ExecBuilder::build (2 samples, 0.04%)</title><rect x="10.6" y="357" width="0.5" height="15.0" fill="rgb(233,74,24)" rx="2" ry="2" />
<text  x="13.64" y="367.5" ></text>
</g>
<g >
<title>std::sys::unix::memchr::memrchr::memrchr_specific (2 samples, 0.04%)</title><rect x="1176.2" y="117" width="0.4" height="15.0" fill="rgb(212,74,14)" rx="2" ry="2" />
<text  x="1179.20" y="127.5" ></text>
</g>
<g >
<title>_dl_check_map_versions (1 samples, 0.02%)</title><rect x="1189.8" y="341" width="0.2" height="15.0" fill="rgb(223,149,51)" rx="2" ry="2" />
<text  x="1192.79" y="351.5" ></text>
</g>
<g >
<title>__libc_start_main (5,551 samples, 99.89%)</title><rect x="11.1" y="437" width="1178.7" height="15.0" fill="rgb(220,160,14)" rx="2" ry="2" />
<text  x="14.06" y="447.5" >__libc_start_main</text>
</g>
<g >
<title>_dl_start (1 samples, 0.02%)</title><rect x="1189.8" y="437" width="0.2" height="15.0" fill="rgb(239,27,49)" rx="2" ry="2" />
<text  x="1192.79" y="447.5" ></text>
</g>
<g >
<title>regex_syntax::parser::Parser::parse (1 samples, 0.02%)</title><rect x="10.8" y="341" width="0.3" height="15.0" fill="rgb(219,202,51)" rx="2" ry="2" />
<text  x="13.85" y="351.5" ></text>
</g>
<g >
<title>__memmove_avx_unaligned_erms (4 samples, 0.07%)</title><rect x="23.2" y="245" width="0.8" height="15.0" fill="rgb(247,220,54)" rx="2" ry="2" />
<text  x="26.17" y="255.5" ></text>
</g>
<g >
<title>&lt;regex::re_unicode::Split as core::iter::traits::iterator::Iterator&gt;::next (3,093 samples, 55.66%)</title><rect x="167.1" y="245" width="656.8" height="15.0" fill="rgb(222,117,47)" rx="2" ry="2" />
<text  x="170.14" y="255.5" >&lt;regex::re_unicode::Split as core::iter::traits::iterator::Iterator&gt;::next</text>
</g>
<g >
<title>__memmove_avx_unaligned_erms (1 samples, 0.02%)</title><rect x="1176.0" y="53" width="0.2" height="15.0" fill="rgb(240,165,6)" rx="2" ry="2" />
<text  x="1178.99" y="63.5" ></text>
</g>
<g >
<title>__GI___libc_malloc (1 samples, 0.02%)</title><rect x="10.0" y="293" width="0.2" height="15.0" fill="rgb(236,133,14)" rx="2" ry="2" />
<text  x="13.00" y="303.5" ></text>
</g>
<g >
<title>&lt;std::io::buffered::LineWriter&lt;W&gt; as std::io::Write&gt;::write (21 samples, 0.38%)</title><rect x="1172.2" y="165" width="4.4" height="15.0" fill="rgb(241,163,13)" rx="2" ry="2" />
<text  x="1175.16" y="175.5" ></text>
</g>
<g >
<title>std::sys::unix::alloc::&lt;impl core::alloc::GlobalAlloc for std::alloc::System&gt;::realloc (8 samples, 0.14%)</title><rect x="934.5" y="229" width="1.7" height="15.0" fill="rgb(228,159,47)" rx="2" ry="2" />
<text  x="937.55" y="239.5" ></text>
</g>
<g >
<title>choose::choice::Choice::parse_choice (1 samples, 0.02%)</title><rect x="10.2" y="405" width="0.2" height="15.0" fill="rgb(224,5,1)" rx="2" ry="2" />
<text  x="13.21" y="415.5" ></text>
</g>
<g >
<title>core::fmt::write (14 samples, 0.25%)</title><rect x="1186.6" y="261" width="3.0" height="15.0" fill="rgb(217,8,48)" rx="2" ry="2" />
<text  x="1189.60" y="271.5" ></text>
</g>
<g >
<title>std::sys::unix::alloc::&lt;impl core::alloc::GlobalAlloc for std::alloc::System&gt;::dealloc (1 samples, 0.02%)</title><rect x="37.8" y="261" width="0.2" height="15.0" fill="rgb(247,27,26)" rx="2" ry="2" />
<text  x="40.82" y="271.5" ></text>
</g>
<g >
<title>clap::app::validator::Validator::validate_matched_args (1 samples, 0.02%)</title><rect x="10.0" y="405" width="0.2" height="15.0" fill="rgb(224,151,29)" rx="2" ry="2" />
<text  x="13.00" y="415.5" ></text>
</g>
<g >
<title>__rdl_realloc (16 samples, 0.29%)</title><rect x="932.9" y="245" width="3.3" height="15.0" fill="rgb(230,20,14)" rx="2" ry="2" />
<text  x="935.85" y="255.5" ></text>
</g>
<g >
<title>regex::re_builder::unicode::RegexBuilder::build (2 samples, 0.04%)</title><rect x="10.6" y="373" width="0.5" height="15.0" fill="rgb(220,217,11)" rx="2" ry="2" />
<text  x="13.64" y="383.5" ></text>
</g>
<g >
<title>dl_main (1 samples, 0.02%)</title><rect x="1189.8" y="405" width="0.2" height="15.0" fill="rgb(215,131,46)" rx="2" ry="2" />
<text  x="1192.79" y="415.5" ></text>
</g>
<g >
<title>__rust_alloc (8 samples, 0.14%)</title><rect x="936.2" y="245" width="1.7" height="15.0" fill="rgb(220,151,52)" rx="2" ry="2" />
<text  x="939.25" y="255.5" ></text>
</g>
<g >
<title>_dl_check_all_versions (1 samples, 0.02%)</title><rect x="1189.8" y="357" width="0.2" height="15.0" fill="rgb(224,41,45)" rx="2" ry="2" />
<text  x="1192.79" y="367.5" ></text>
</g>
<g >
<title>alloc::raw_vec::RawVec&lt;T,A&gt;::reserve (18 samples, 0.32%)</title><rect x="24.0" y="245" width="3.8" height="15.0" fill="rgb(218,128,21)" rx="2" ry="2" />
<text  x="27.01" y="255.5" ></text>
</g>
<g >
<title>__GI___libc_free (3 samples, 0.05%)</title><rect x="37.2" y="277" width="0.6" height="15.0" fill="rgb(228,45,27)" rx="2" ry="2" />
<text  x="40.18" y="287.5" ></text>
</g>
<g >
<title>std::panicking::try (5,550 samples, 99.87%)</title><rect x="11.3" y="373" width="1178.5" height="15.0" fill="rgb(227,191,37)" rx="2" ry="2" />
<text  x="14.27" y="383.5" >std::panicking::try</text>
</g>
<g >
<title>choose::choice::Choice::print_choice (5,396 samples, 97.10%)</title><rect x="39.5" y="277" width="1145.8" height="15.0" fill="rgb(237,78,19)" rx="2" ry="2" />
<text  x="42.52" y="287.5" >choose::choice::Choice::print_choice</text>
</g>
<g >
<title>core::ptr::mut_ptr::&lt;impl *mut T&gt;::is_null (1 samples, 0.02%)</title><rect x="37.0" y="229" width="0.2" height="15.0" fill="rgb(219,185,20)" rx="2" ry="2" />
<text  x="39.97" y="239.5" ></text>
</g>
<g >
<title>&lt;regex::re_trait::Matches&lt;R&gt; as core::iter::traits::iterator::Iterator&gt;::next (2,554 samples, 45.96%)</title><rect x="281.6" y="229" width="542.3" height="15.0" fill="rgb(251,192,11)" rx="2" ry="2" />
<text  x="284.59" y="239.5" >&lt;regex::re_trait::Matches&lt;R&gt; as core::iter::traits::iterator::Iterator&gt;::n..</text>
</g>
<g >
<title>std::panicking::try::do_call (5,550 samples, 99.87%)</title><rect x="11.3" y="341" width="1178.5" height="15.0" fill="rgb(212,194,32)" rx="2" ry="2" />
<text  x="14.27" y="351.5" >std::panicking::try::do_call</text>
</g>
<g >
<title>regex::compile::Compiler::c_class (1 samples, 0.02%)</title><rect x="10.2" y="293" width="0.2" height="15.0" fill="rgb(229,96,26)" rx="2" ry="2" />
<text  x="13.21" y="303.5" ></text>
</g>
<g >
<title>&lt;std::io::buffered::BufWriter&lt;W&gt; as std::io::Write&gt;::write (19 samples, 0.34%)</title><rect x="1172.2" y="149" width="4.0" height="15.0" fill="rgb(206,9,52)" rx="2" ry="2" />
<text  x="1175.16" y="159.5" ></text>
</g>
<g >
<title>&lt;std::io::stdio::StdoutLock as std::io::Write&gt;::write (21 samples, 0.38%)</title><rect x="1172.2" y="181" width="4.4" height="15.0" fill="rgb(217,30,45)" rx="2" ry="2" />
<text  x="1175.16" y="191.5" ></text>
</g>
<g >
<title>std::sys::unix::memchr::memrchr (2 samples, 0.04%)</title><rect x="1176.2" y="133" width="0.4" height="15.0" fill="rgb(249,113,11)" rx="2" ry="2" />
<text  x="1179.20" y="143.5" ></text>
</g>
<g >
<title>__GI___read (10 samples, 0.18%)</title><rect x="20.8" y="197" width="2.2" height="15.0" fill="rgb(229,152,41)" rx="2" ry="2" />
<text  x="23.83" y="207.5" ></text>
</g>
<g >
<title>__GI___libc_write (13 samples, 0.23%)</title><rect x="1172.2" y="69" width="2.7" height="15.0" fill="rgb(213,122,10)" rx="2" ry="2" />
<text  x="1175.16" y="79.5" ></text>
</g>
<g >
<title>core::intrinsics::copy_nonoverlapping (1 samples, 0.02%)</title><rect x="1176.0" y="69" width="0.2" height="15.0" fill="rgb(212,80,34)" rx="2" ry="2" />
<text  x="1178.99" y="79.5" ></text>
</g>
<g >
<title>regex_syntax::ast::parse::ParserI&lt;P&gt;::push_group (1 samples, 0.02%)</title><rect x="10.4" y="357" width="0.2" height="15.0" fill="rgb(216,63,42)" rx="2" ry="2" />
<text  x="13.42" y="367.5" ></text>
</g>
<g >
<title>__GI___libc_malloc (10 samples, 0.18%)</title><rect x="25.1" y="229" width="2.1" height="15.0" fill="rgb(241,168,51)" rx="2" ry="2" />
<text  x="28.08" y="239.5" ></text>
</g>
<g >
<title>choose::choice::Choice::parse_choice (1 samples, 0.02%)</title><rect x="1189.6" y="245" width="0.2" height="15.0" fill="rgb(250,106,23)" rx="2" ry="2" />
<text  x="1192.58" y="255.5" ></text>
</g>
<g >
<title>regex::exec::ExecBuilder::build (1 samples, 0.02%)</title><rect x="10.2" y="357" width="0.2" height="15.0" fill="rgb(236,210,4)" rx="2" ry="2" />
<text  x="13.21" y="367.5" ></text>
</g>
<g >
<title>__rust_maybe_catch_panic (5,550 samples, 99.87%)</title><rect x="11.3" y="357" width="1178.5" height="15.0" fill="rgb(205,121,47)" rx="2" ry="2" />
<text  x="14.27" y="367.5" >__rust_maybe_catch_panic</text>
</g>
<g >
<title>clap::app::parser::Parser::get_matches_with (1 samples, 0.02%)</title><rect x="10.0" y="437" width="0.2" height="15.0" fill="rgb(210,31,39)" rx="2" ry="2" />
<text  x="13.00" y="447.5" ></text>
</g>
<g >
<title>__libc_csu_init (1 samples, 0.02%)</title><rect x="11.1" y="421" width="0.2" height="15.0" fill="rgb(210,215,15)" rx="2" ry="2" />
<text  x="14.06" y="431.5" ></text>
</g>
<g >
<title>&lt;regex::re_unicode::Regex as core::str::FromStr&gt;::from_str (1 samples, 0.02%)</title><rect x="10.2" y="389" width="0.2" height="15.0" fill="rgb(229,90,54)" rx="2" ry="2" />
<text  x="13.21" y="399.5" ></text>
</g>
<g >
<title>version_check_doit (1 samples, 0.02%)</title><rect x="1189.8" y="373" width="0.2" height="15.0" fill="rgb(242,63,33)" rx="2" ry="2" />
<text  x="1192.79" y="383.5" ></text>
</g>
<g >
<title>__rdl_alloc (3 samples, 0.05%)</title><rect x="27.2" y="229" width="0.6" height="15.0" fill="rgb(214,102,3)" rx="2" ry="2" />
<text  x="30.20" y="239.5" ></text>
</g>
<g >
<title>regex::exec::ExecBuilder::build (1 samples, 0.02%)</title><rect x="10.0" y="325" width="0.2" height="15.0" fill="rgb(211,175,30)" rx="2" ry="2" />
<text  x="13.00" y="335.5" ></text>
</g>
<g >
<title>__rdl_alloc (11 samples, 0.20%)</title><rect x="930.5" y="245" width="2.4" height="15.0" fill="rgb(254,64,5)" rx="2" ry="2" />
<text  x="933.51" y="255.5" ></text>
</g>
<g >
<title>&lt;std::io::Guard as core::ops::drop::Drop&gt;::drop (1 samples, 0.02%)</title><rect x="23.0" y="245" width="0.2" height="15.0" fill="rgb(243,226,8)" rx="2" ry="2" />
<text  x="25.95" y="255.5" ></text>
</g>
<g >
<title>__GI___libc_realloc (421 samples, 7.58%)</title><rect x="841.1" y="245" width="89.4" height="15.0" fill="rgb(222,177,36)" rx="2" ry="2" />
<text  x="844.12" y="255.5" >__GI___lib..</text>
</g>
<g >
<title>core::fmt::Formatter::pad (33 samples, 0.59%)</title><rect x="1177.9" y="229" width="7.0" height="15.0" fill="rgb(217,150,40)" rx="2" ry="2" />
<text  x="1180.90" y="239.5" ></text>
</g>
<g >
<title>_int_free (1 samples, 0.02%)</title><rect x="10.6" y="277" width="0.2" height="15.0" fill="rgb(230,149,39)" rx="2" ry="2" />
<text  x="13.64" y="287.5" ></text>
</g>
<g >
<title>core::fmt::write (331 samples, 5.96%)</title><rect x="1115.0" y="245" width="70.3" height="15.0" fill="rgb(221,225,49)" rx="2" ry="2" />
<text  x="1118.04" y="255.5" >core::f..</text>
</g>
<g >
<title>_int_malloc (1 samples, 0.02%)</title><rect x="10.0" y="277" width="0.2" height="15.0" fill="rgb(238,72,45)" rx="2" ry="2" />
<text  x="13.00" y="287.5" ></text>
</g>
<g >
<title>&lt;alloc::vec::Vec&lt;T&gt; as alloc::vec::SpecExtend&lt;&amp;T,core::slice::Iter&lt;T&gt;&gt;&gt;::spec_extend (1 samples, 0.02%)</title><rect x="1176.0" y="101" width="0.2" height="15.0" fill="rgb(250,69,13)" rx="2" ry="2" />
<text  x="1178.99" y="111.5" ></text>
</g>
<g >
<title>core::str::run_utf8_validation (10 samples, 0.18%)</title><rect x="28.5" y="229" width="2.1" height="15.0" fill="rgb(226,198,0)" rx="2" ry="2" />
<text  x="31.47" y="239.5" ></text>
</g>
<g >
<title>&lt;std::io::stdio::StdoutRaw as std::io::Write&gt;::write (13 samples, 0.23%)</title><rect x="1172.2" y="117" width="2.7" height="15.0" fill="rgb(215,148,48)" rx="2" ry="2" />
<text  x="1175.16" y="127.5" ></text>
</g>
<g >
<title>std::rt::lang_start::_$u7b$$u7b$closure$u7d$$u7d$::h156dc5eab96477ce (5,550 samples, 99.87%)</title><rect x="11.3" y="309" width="1178.5" height="15.0" fill="rgb(206,26,9)" rx="2" ry="2" />
<text  x="14.27" y="319.5" >std::rt::lang_start::_$u7b$$u7b$closure$u7d$$u7d$::h156dc5eab96477ce</text>
</g>
<g >
<title>_int_realloc (346 samples, 6.23%)</title><rect x="857.0" y="229" width="73.5" height="15.0" fill="rgb(212,192,33)" rx="2" ry="2" />
<text  x="860.04" y="239.5" >_int_rea..</text>
</g>
<g >
<title>thread_local::thread_id::get (20 samples, 0.36%)</title><rect x="1093.4" y="245" width="4.2" height="15.0" fill="rgb(207,155,6)" rx="2" ry="2" />
<text  x="1096.38" y="255.5" ></text>
</g>
<g >
<title>_int_malloc (135 samples, 2.43%)</title><rect x="901.6" y="213" width="28.7" height="15.0" fill="rgb(222,15,45)" rx="2" ry="2" />
<text  x="904.64" y="223.5" >_i..</text>
</g>
<g >
<title>main (5,550 samples, 99.87%)</title><rect x="11.3" y="421" width="1178.5" height="15.0" fill="rgb(211,107,41)" rx="2" ry="2" />
<text  x="14.27" y="431.5" >main</text>
</g>
<g >
<title>core::ptr::drop_in_place (1 samples, 0.02%)</title><rect x="1189.6" y="213" width="0.2" height="15.0" fill="rgb(230,120,18)" rx="2" ry="2" />
<text  x="1192.58" y="223.5" ></text>
</g>
<g >
<title>__rdl_alloc (5 samples, 0.09%)</title><rect x="1082.1" y="245" width="1.1" height="15.0" fill="rgb(238,60,24)" rx="2" ry="2" />
<text  x="1085.13" y="255.5" ></text>
</g>
<g >
<title>__memmove_avx_unaligned_erms (128 samples, 2.30%)</title><rect x="1054.9" y="245" width="27.2" height="15.0" fill="rgb(240,65,50)" rx="2" ry="2" />
<text  x="1057.95" y="255.5" >_..</text>
</g>
<g >
<title>choose (5,557 samples, 100.00%)</title><rect x="10.0" y="469" width="1180.0" height="15.0" fill="rgb(231,125,44)" rx="2" ry="2" />
<text  x="13.00" y="479.5" >choose</text>
</g>
<g >
<title>choose::choice::Opt::augment_clap::_$u7b$$u7b$closure$u7d$$u7d$::hc43b0f9e58e47fcf (1 samples, 0.02%)</title><rect x="10.2" y="421" width="0.2" height="15.0" fill="rgb(219,216,27)" rx="2" ry="2" />
<text  x="13.21" y="431.5" ></text>
</g>
<g >
<title>__GI___libc_malloc (81 samples, 1.46%)</title><rect x="823.9" y="245" width="17.2" height="15.0" fill="rgb(212,36,38)" rx="2" ry="2" />
<text  x="826.92" y="255.5" ></text>
</g>
<g >
<title>&lt;std::sys::unix::stdio::Stdout as std::io::Write&gt;::write (5 samples, 0.09%)</title><rect x="1174.9" y="85" width="1.1" height="15.0" fill="rgb(235,120,9)" rx="2" ry="2" />
<text  x="1177.92" y="95.5" ></text>
</g>
<g >
<title>std::io::append_to_string (90 samples, 1.62%)</title><rect x="18.1" y="261" width="19.1" height="15.0" fill="rgb(252,65,32)" rx="2" ry="2" />
<text  x="21.07" y="271.5" ></text>
</g>
<g >
<title>&lt;regex_syntax::hir::translate::TranslatorI as regex_syntax::ast::visitor::Visitor&gt;::visit_post (1 samples, 0.02%)</title><rect x="10.8" y="309" width="0.3" height="15.0" fill="rgb(213,43,14)" rx="2" ry="2" />
<text  x="13.85" y="319.5" ></text>
</g>
<g >
<title>regex::compile::Compiler::compile (1 samples, 0.02%)</title><rect x="10.2" y="341" width="0.2" height="15.0" fill="rgb(247,75,45)" rx="2" ry="2" />
<text  x="13.21" y="351.5" ></text>
</g>
<g >
<title>alloc::vec::Vec&lt;T&gt;::extend_from_slice (1 samples, 0.02%)</title><rect x="1176.0" y="117" width="0.2" height="15.0" fill="rgb(233,57,49)" rx="2" ry="2" />
<text  x="1178.99" y="127.5" ></text>
</g>
<g >
<title>choose::choice::Choice::parse_choice (1 samples, 0.02%)</title><rect x="10.0" y="373" width="0.2" height="15.0" fill="rgb(237,125,31)" rx="2" ry="2" />
<text  x="13.00" y="383.5" ></text>
</g>
<g >
<title>core::ptr::align_offset (1 samples, 0.02%)</title><rect x="30.4" y="197" width="0.2" height="15.0" fill="rgb(236,151,20)" rx="2" ry="2" />
<text  x="33.39" y="207.5" ></text>
</g>
<g >
<title>std::sys::unix::fd::FileDesc::write (5 samples, 0.09%)</title><rect x="1174.9" y="69" width="1.1" height="15.0" fill="rgb(229,119,3)" rx="2" ry="2" />
<text  x="1177.92" y="79.5" ></text>
</g>
<g >
<title>alloc::raw_vec::RawVec&lt;T,A&gt;::reserve (1 samples, 0.02%)</title><rect x="1189.2" y="213" width="0.2" height="15.0" fill="rgb(248,71,27)" rx="2" ry="2" />
<text  x="1192.15" y="223.5" ></text>
</g>
<g >
<title>std::rt::lang_start_internal::_$u7b$$u7b$closure$u7d$$u7d$::h53a8977914d52a8f (5,550 samples, 99.87%)</title><rect x="11.3" y="325" width="1178.5" height="15.0" fill="rgb(252,190,35)" rx="2" ry="2" />
<text  x="14.27" y="335.5" >std::rt::lang_start_internal::_$u7b$$u7b$closure$u7d$$u7d$::h53a8977914d52a8f</text>
</g>
<g >
<title>std::sys::unix::fd::FileDesc::read (10 samples, 0.18%)</title><rect x="20.8" y="213" width="2.2" height="15.0" fill="rgb(223,129,42)" rx="2" ry="2" />
<text  x="23.83" y="223.5" ></text>
</g>
<g >
<title>&lt;std::io::Write::write_fmt::Adaptor&lt;T&gt; as core::fmt::Write&gt;::write_str (224 samples, 4.03%)</title><rect x="1129.1" y="229" width="47.5" height="15.0" fill="rgb(213,194,29)" rx="2" ry="2" />
<text  x="1132.06" y="239.5" >&lt;std..</text>
</g>
<g >
<title>regex::re_builder::unicode::RegexBuilder::build (1 samples, 0.02%)</title><rect x="10.4" y="437" width="0.2" height="15.0" fill="rgb(234,120,7)" rx="2" ry="2" />
<text  x="13.42" y="447.5" ></text>
</g>
<g >
<title>std::sys::unix::alloc::&lt;impl core::alloc::GlobalAlloc for std::alloc::System&gt;::dealloc (9 samples, 0.16%)</title><rect x="949.8" y="245" width="1.9" height="15.0" fill="rgb(232,224,44)" rx="2" ry="2" />
<text  x="952.84" y="255.5" ></text>
</g>
<g >
<title>__memchr_avx2 (30 samples, 0.54%)</title><rect x="30.6" y="229" width="6.4" height="15.0" fill="rgb(206,192,22)" rx="2" ry="2" />
<text  x="33.60" y="239.5" ></text>
</g>
<g >
<title>std::panic::catch_unwind (5,550 samples, 99.87%)</title><rect x="11.3" y="389" width="1178.5" height="15.0" fill="rgb(246,60,39)" rx="2" ry="2" />
<text  x="14.27" y="399.5" >std::panic::catch_unwind</text>
</g>
<g >
<title>regex::exec::ExecBuilder::build (1 samples, 0.02%)</title><rect x="10.4" y="421" width="0.2" height="15.0" fill="rgb(208,44,41)" rx="2" ry="2" />
<text  x="13.42" y="431.5" ></text>
</g>
<g >
<title>regex::re_unicode::Regex::split (55 samples, 0.99%)</title><rect x="1086.0" y="261" width="11.6" height="15.0" fill="rgb(206,115,25)" rx="2" ry="2" />
<text  x="1088.95" y="271.5" ></text>
</g>
<g >
<title>choose::choice::Choice::parse_choice (2 samples, 0.04%)</title><rect x="10.6" y="405" width="0.5" height="15.0" fill="rgb(244,137,47)" rx="2" ry="2" />
<text  x="13.64" y="415.5" ></text>
</g>
<g >
<title>std::io::buffered::BufWriter&lt;W&gt;::flush_buf (5 samples, 0.09%)</title><rect x="1174.9" y="133" width="1.1" height="15.0" fill="rgb(218,213,13)" rx="2" ry="2" />
<text  x="1177.92" y="143.5" ></text>
</g>
<g >
<title>&lt;str as core::fmt::Display&gt;::fmt (6 samples, 0.11%)</title><rect x="1176.6" y="229" width="1.3" height="15.0" fill="rgb(249,24,54)" rx="2" ry="2" />
<text  x="1179.62" y="239.5" ></text>
</g>
<g >
<title>_int_free (222 samples, 3.99%)</title><rect x="953.4" y="261" width="47.2" height="15.0" fill="rgb(241,24,35)" rx="2" ry="2" />
<text  x="956.45" y="271.5" >_int..</text>
</g>
</g>
</svg>
